<?xml version="1.0" encoding="iso-8859-1"?>
<!-- Uploaded to: SVG Repo, www.svgrepo.com, Generator: SVG Repo Mixer Tools -->
<svg height="800px" width="800px" version="1.1" id="Layer_1" xmlns="http://www.w3.org/2000/svg" xmlns:xlink="http://www.w3.org/1999/xlink" 
	 viewBox="0 0 448 448" xml:space="preserve">
<g transform="translate(0 -1020.36)" shape-rendering="auto" image-rendering="auto" color-rendering="auto" color-interpolation="sRGB">
	<g>
		<path style="fill:#464C63;" d="M419.281,1141.042l-44.875,11.25c-43.178,10.809-82.688,32.67-112.281,66.531l-59.281,67.783
			c-4.222,4.83-10.312,7.594-16.719,7.594h-3.156c-4.014,0-7.094-3.094-7.094-7.127v-50.748c0-4.418-3.582-8-8-8H8
			c-4.418,0-8,3.582-8,8v64.063c0,62.623,48.714,119.969,112,119.969h40.563c42.013,0,81.627-26.533,104.969-60.125l61.969-89.156
			c19.323-27.807,45.699-48.566,76.406-63.936l39.313-19.688c7.82-3.91,12.781-11.951,12.781-20.688v-3.281
			c-0.003-14.842-14.319-26.039-28.719-22.438V1141.042z M423.188,1156.574c4.666-1.168,8.812,2.076,8.813,6.906v3.281
			c0,2.719-1.523,5.168-3.938,6.377l-39.344,19.686c-32.59,16.314-61.284,38.773-82.375,69.125l-61.938,89.156
			c-20.69,29.773-56.752,53.25-91.844,53.25H112c-53.51,0-96-49.664-96-103.969v-56.063h143.875v42.748
			c0,12.672,10.422,23.127,23.094,23.127h3.156c11.017,0,21.53-4.766,28.781-13.063l59.25-67.813
			c27.196-31.119,63.669-51.398,104.156-61.531L423.188,1156.574z"/>
		<path style="fill:#464C63;" d="M5.125,1276.355v16h164.031v-16H5.125z"/>
	</g>
	<path style="fill:#B5755F;" d="M426.534,1156.462c3.147,0.672,5.531,3.434,5.531,7.063v3.283c0,2.715-1.616,5.199-4.03,6.406
		l-39.312,19.594c-32.59,16.314-61.254,38.74-82.344,69.094l-62,89.156c-20.69,29.771-56.69,53.277-91.782,53.277h-40.624
		c-53.51,0-96.032-49.633-96.032-103.938v-8.031h144.563c2.446,10.145,11.632,17.844,22.469,17.844h3.187
		c11.016,0,21.435-4.826,28.688-13.125l59.28-67.781c27.197-31.117,63.701-51.398,104.189-61.531l44.874-11.219
		c1.168-0.305,2.296-0.305,3.344-0.16V1156.462z"/>
	<path style="fill:#606C78;" d="M15.94,1244.431h144v32h-144L15.94,1244.431z"/>
	<path style="fill:#9D6A58;" d="M426.533,1156.431c-1.04-0.176-2.174-0.176-3.344,0.16l-44.874,11.219
		c-40.488,10.133-76.992,30.414-104.189,61.531l-59.28,67.781c-5.914,6.766-13.957,11.053-22.688,12.469
		c1.216,0.207,2.352,0.656,3.626,0.656h3.187c11.016,0,21.434-4.826,28.686-13.125l59.282-67.781
		c27.197-31.117,63.699-51.398,104.187-61.531l38.531-9.625c-0.896-0.801-1.918-1.439-3.125-1.688V1156.431z M15.939,1292.369v8.031
		c0,54.305,42.522,103.938,96.032,103.938h12.813c-53.51,0-96.032-49.633-96.032-103.938v-8.031H15.939z"/>
	<path style="fill:#59626C;" d="M15.939,1244.431v32h12.813v-32H15.939z"/>
	<g>
		<path style="fill:#464C63;" d="M55.344,1100.386c-4.407,0.32-7.72,4.154-7.399,8.561c0.098,1.348,0.536,2.65,1.274,3.783
			c0,0,1.798,2.867,3.594,6.531c1.796,3.662,3.187,8.5,3.188,9.094c0.005,4.209-2.777,9.365-6.781,15.783
			c-4.004,6.416-9.231,14.084-9.219,24.25c0.008,6.549,2.611,11.664,4.813,16.154s4.406,7.969,4.406,7.969
			c2.32,3.762,7.251,4.932,11.013,2.611c3.762-2.32,4.932-7.25,2.612-11.012c-0.02-0.033-0.041-0.066-0.062-0.1
			c0,0-1.798-2.867-3.594-6.531s-3.187-8.498-3.188-9.094c-0.005-4.209,2.777-9.365,6.781-15.781
			c4.004-6.418,9.231-14.117,9.219-24.281c-0.008-6.551-2.611-11.635-4.813-16.125s-4.406-7.969-4.406-7.969
			C61.224,1101.65,58.349,1100.166,55.344,1100.386z"/>
		<path style="fill:#464C63;" d="M111.344,1068.386c-4.407,0.32-7.72,4.154-7.399,8.561c0.098,1.348,0.536,2.65,1.274,3.783
			c0,0,1.798,2.867,3.594,6.531s3.187,8.498,3.188,9.094c0.005,4.209-2.777,9.365-6.781,15.783
			c-4.004,6.416-9.231,14.084-9.219,24.25c0.008,6.549,2.611,11.664,4.813,16.154c2.202,4.492,4.406,7.969,4.406,7.969
			c2.32,3.762,7.251,4.932,11.013,2.611s4.932-7.25,2.612-11.012c-0.02-0.033-0.041-0.066-0.062-0.1c0,0-1.798-2.865-3.594-6.531
			c-1.796-3.664-3.187-8.498-3.188-9.094c-0.005-4.209,2.777-9.365,6.781-15.781c4.004-6.418,9.231-14.117,9.219-24.281
			c-0.008-6.549-2.611-11.635-4.813-16.125s-4.406-8-4.406-8C117.216,1069.63,114.342,1068.158,111.344,1068.386z"/>
	</g>
</g>
</svg>